# xmcd CD database file
#
# Track frame offsets:
#	150
#	9438
#	20148
#	29618
#	40890
#	51473
#	71298
#	85010
#	97195
#	112328
#	127678
#	137785
#	147668
#	158473
#
# Disc length: 2271 seconds
#
# Revision: 2
# Processed by: cddbd v1.5.2PL0 Copyright (c) Steve Scherf et al.
# Submitted via: CDex 1.70beta2
#
DISCID=c308dd0e
DTITLE=Various Artist - Country-Kings
DYEAR=1900
DGENRE=Country
TTITLE0=George Jones - World's Worst Looser
TTITLE1=Dolly Parton - Honky Tonk Angels
TTITLE2=Willie Nelson - I'm Building Heartaches
TTITLE3=Matchbox - Gunning For The Dog
TTITLE4=Frankie Laine - Sixteen Tons
TTITLE5=Dave Travis - Garden Party
TTITLE6=Freddy Fender - Baby I Want To Love You
TTITLE7=Billy Joe Spears - Sunshine
TTITLE8=Chrispian St.Peters - Caroline Forever
TTITLE9=Stu Stevens - Let's Go Johnny
TTITLE10=Johnny Paycheck - Who Needs You Love
TTITLE11=Johnny - Hey Porter
TTITLE12=Donna Fargo - All That's Keeping Me Alive
TTITLE13=Ron David JR. - Country Kings
EXTD=
EXTT0=
EXTT1=
EXTT2=
EXTT3=
EXTT4=
EXTT5=
EXTT6=
EXTT7=
EXTT8=
EXTT9=
EXTT10=
EXTT11=
EXTT12=
EXTT13=
PLAYORDER=
